<?xml version="1.0" encoding="UTF-8" standalone="no"?>
<!-- Created with Inkscape (http://www.inkscape.org/) -->

<svg
   xmlns:dc="http://purl.org/dc/elements/1.1/"
   xmlns:cc="http://creativecommons.org/ns#"
   xmlns:rdf="http://www.w3.org/1999/02/22-rdf-syntax-ns#"
   xmlns:svg="http://www.w3.org/2000/svg"
   xmlns="http://www.w3.org/2000/svg"
   xmlns:sodipodi="http://sodipodi.sourceforge.net/DTD/sodipodi-0.dtd"
   xmlns:inkscape="http://www.inkscape.org/namespaces/inkscape"
   width="135.46663mm"
   height="129.82417mm"
   viewBox="0 0 135.46663 129.82417"
   version="1.1"
   id="svg8"
   inkscape:version="0.92.4 (5da689c313, 2019-01-14)"
   sodipodi:docname="github.svg">
  <defs
     id="defs2" />
  <sodipodi:namedview
     id="base"
     pagecolor="#ffffff"
     bordercolor="#666666"
     borderopacity="1.0"
     inkscape:pageopacity="0.0"
     inkscape:pageshadow="2"
     inkscape:zoom="0.35"
     inkscape:cx="-216.28629"
     inkscape:cy="53.940459"
     inkscape:document-units="mm"
     inkscape:current-layer="layer1"
     showgrid="false"
     inkscape:object-paths="true"
     inkscape:snap-intersection-paths="true"
     inkscape:snap-smooth-nodes="true"
     inkscape:snap-midpoints="true"
     fit-margin-top="0"
     fit-margin-left="0"
     fit-margin-right="0"
     fit-margin-bottom="0"
     inkscape:window-width="1366"
     inkscape:window-height="713"
     inkscape:window-x="-8"
     inkscape:window-y="-8"
     inkscape:window-maximized="1" />
  <metadata
     id="metadata5">
    <rdf:RDF>
      <cc:Work
         rdf:about="">
        <dc:format>image/svg+xml</dc:format>
        <dc:type
           rdf:resource="http://purl.org/dc/dcmitype/StillImage" />
        <dc:title></dc:title>
      </cc:Work>
    </rdf:RDF>
  </metadata>
  <g
     inkscape:label="Layer 1"
     inkscape:groupmode="layer"
     id="layer1"
     transform="translate(-32.27932,-33.280902)">
    <path
       id="path825"
       d="m 101.86572,34.39144 c -36.551036,0 -66.155724,29.108519 -66.155724,65.009029 0,28.728131 18.953613,53.089971 45.233976,61.679191 3.307785,0.61194 4.52064,-1.4003 4.52064,-3.12586 0,-1.54363 -0.05513,-5.63427 -0.0827,-11.05352 -18.402314,3.91972 -22.28345,-8.72153 -22.28345,-8.72153 -3.010086,-7.50316 -7.359821,-9.50989 -7.359821,-9.50989 -5.992605,-4.02997 0.463086,-3.94729 0.463086,-3.94729 6.643138,0.45207 10.132852,6.69827 10.132852,6.69827 5.898885,9.9399 15.485951,7.06764 19.267853,5.40823 0.595401,-4.2064 2.298912,-7.06763 4.189862,-8.69397 -14.692082,-1.62632 -30.133929,-7.21647 -30.133929,-32.124109 0,-7.0952 2.563533,-12.894856 6.808526,-17.443065 -0.744252,-1.642866 -2.977007,-8.252931 0.578862,-17.206007 0,0 5.540542,-1.742096 18.192823,6.665195 5.292457,-1.444405 10.915693,-2.161094 16.538934,-2.194166 5.62323,0.03311 11.24647,0.749761 16.53893,2.194166 12.56959,-8.407291 18.11013,-6.665195 18.11013,-6.665195 3.55587,8.953076 1.32311,15.563141 0.66156,17.206007 4.21742,4.548209 6.78096,10.347865 6.78096,17.443065 0,24.973789 -15.4639,30.470229 -30.18355,32.068989 2.31545,1.95159 4.4655,5.93748 4.4655,12.02932 0,8.69947 -0.0827,15.68993 -0.0827,17.8014 0,1.7035 1.15773,3.73779 4.54821,3.08726 26.46779,-8.53408 45.40487,-32.91247 45.40487,-61.596491 0,-35.90051 -29.62122,-65.009029 -66.15572,-65.009029 z"
       inkscape:connector-curvature="0"
       style="fill:#ffffff;stroke-width:5.64444447" />
  </g>
</svg>
