<?xml version="1.0" encoding="UTF-8" standalone="no"?>
<!-- Created with Inkscape (http://www.inkscape.org/) -->

<svg
   xmlns:dc="http://purl.org/dc/elements/1.1/"
   xmlns:cc="http://creativecommons.org/ns#"
   xmlns:rdf="http://www.w3.org/1999/02/22-rdf-syntax-ns#"
   xmlns:svg="http://www.w3.org/2000/svg"
   xmlns="http://www.w3.org/2000/svg"
   xmlns:sodipodi="http://sodipodi.sourceforge.net/DTD/sodipodi-0.dtd"
   xmlns:inkscape="http://www.inkscape.org/namespaces/inkscape"
   width="135.46663mm"
   height="129.82417mm"
   viewBox="0 0 135.46663 129.82417"
   version="1.1"
   id="svg8"
   inkscape:version="0.92.4 (5da689c313, 2019-01-14)"
   sodipodi:docname="web.svg">
  <defs
     id="defs2">
	

		
	














</defs>
  <sodipodi:namedview
     id="base"
     pagecolor="#ffffff"
     bordercolor="#666666"
     borderopacity="1.0"
     inkscape:pageopacity="0.0"
     inkscape:pageshadow="2"
     inkscape:zoom="0.35"
     inkscape:cx="-216.28629"
     inkscape:cy="53.940459"
     inkscape:document-units="mm"
     inkscape:current-layer="layer1"
     showgrid="false"
     inkscape:object-paths="false"
     inkscape:snap-intersection-paths="false"
     inkscape:snap-smooth-nodes="false"
     inkscape:snap-midpoints="false"
     fit-margin-top="0"
     fit-margin-left="0"
     fit-margin-right="0"
     fit-margin-bottom="0"
     inkscape:window-width="1366"
     inkscape:window-height="713"
     inkscape:window-x="-8"
     inkscape:window-y="-8"
     inkscape:window-maximized="1"
     inkscape:object-nodes="false"
     inkscape:snap-nodes="false" />
  <metadata
     id="metadata5">
    <rdf:RDF>
      <cc:Work
         rdf:about="">
        <dc:format>image/svg+xml</dc:format>
        <dc:type
           rdf:resource="http://purl.org/dc/dcmitype/StillImage" />
        <dc:title></dc:title>
      </cc:Work>
    </rdf:RDF>
  </metadata>
  <g
     inkscape:label="Layer 1"
     inkscape:groupmode="layer"
     id="layer1"
     transform="translate(-32.27932,-33.280902)">
    <path
       inkscape:connector-curvature="0"
       d="m 151.93095,60.81815 c -0.002,-0.0408 -0.007,-0.0815 -0.0135,-0.12198 -0.15795,-0.22569 -0.35216,-0.41989 -0.51488,-0.64108 -1.18004,-1.60761 -2.4294,-3.15489 -3.74782,-4.64212 -0.36115,-0.4064 -0.72258,-0.8083 -1.09273,-1.2057 -1.35757,-1.45389 -2.78156,-2.84031 -4.2717,-4.15872 -0.27543,-0.24395 -0.53287,-0.49663 -0.8083,-0.73607 -3.67241,-3.14617 -7.69355,-5.86132 -11.9843,-8.09176 -0.17171,-0.0902 -0.35216,-0.16695 -0.52837,-0.25744 -1.91082,-0.97102 -3.87006,-1.84388 -5.87031,-2.61461 -0.45165,-0.16245 -0.86254,-0.31618 -1.29143,-0.45164 -1.77906,-0.64109 -3.58537,-1.20253 -5.41867,-1.68434 -0.54187,-0.144462 -1.08373,-0.293422 -1.6346,-0.419893 -1.8063,-0.419894 -3.61234,-0.740569 -5.4594,-1.002507 -0.55986,-0.08123 -1.11072,-0.189706 -1.67534,-0.257439 -4.75694,-0.578115 -9.566276,-0.578115 -14.323486,0 -0.56435,0.06773 -1.11522,0.176212 -1.67534,0.257439 -1.84679,0.261938 -3.67109,0.582613 -5.45941,1.002507 -0.55087,0.126471 -1.09273,0.275431 -1.6346,0.419893 -1.84547,0.48154 -3.65151,1.04299 -5.41867,1.68434 -0.45164,0.15346 -0.86254,0.30718 -1.29143,0.45164 -1.99998,0.77073 -3.95949,1.64333 -5.87031,2.61461 -0.17621,0.0902 -0.35666,0.16696 -0.52837,0.25744 -4.30504,2.22806 -8.33967,4.94295 -12.02505,8.09176 -0.27543,0.23918 -0.53287,0.49212 -0.8083,0.73607 -1.50521,1.3245 -2.9292,2.71092 -4.2717,4.15872 -0.37015,0.3974 -0.73157,0.7993 -1.09273,1.2057 -1.32159,1.48405 -2.57095,3.03133 -3.74782,4.64185 -0.16245,0.22119 -0.35666,0.4154 -0.51488,0.64109 -0.0206,0.0394 -0.0389,0.0802 -0.0542,0.12197 -15.57496,21.82733 -15.57496,51.13523 0,72.9623 0.0154,0.0418 0.0333,0.0825 0.0542,0.12197 0.15796,0.22569 0.35216,0.41989 0.51488,0.64108 1.17713,1.60761 2.42623,3.1549 3.74782,4.64212 0.36116,0.4064 0.72258,0.8083 1.09273,1.20571 1.36075,1.45388 2.78448,2.8403 4.2717,4.15872 0.27543,0.24394 0.53287,0.49662 0.8083,0.73607 3.67242,3.14616 7.69356,5.86131 11.9843,8.09175 0.17172,0.0902 0.35216,0.16695 0.52838,0.25744 1.91082,0.97102 3.87006,1.84388 5.87031,2.61461 0.45164,0.16246 0.86254,0.31618 1.29143,0.45165 1.77906,0.64108 3.58537,1.20253 5.41867,1.68433 0.54186,0.14447 1.08373,0.29343 1.63459,0.4199 1.80631,0.41989 3.61236,0.74057 5.45941,1.0025 0.55986,0.0812 1.11072,0.18971 1.67535,0.25744 4.75694,0.57812 9.566276,0.57812 14.323476,0 0.56436,-0.0677 1.11522,-0.17621 1.67535,-0.25744 1.84679,-0.26193 3.67109,-0.58261 5.4594,-1.0025 0.55086,-0.12647 1.09273,-0.27543 1.63459,-0.4199 1.84838,-0.48154 3.65469,-1.04298 5.41867,-1.68433 0.45164,-0.15346 0.86254,-0.30719 1.29143,-0.45165 1.99999,-0.77073 3.95949,-1.64333 5.87031,-2.61461 0.17621,-0.0902 0.35666,-0.16695 0.52838,-0.25744 4.29074,-2.2307 8.31188,-4.94559 11.9843,-8.09175 0.27543,-0.23945 0.53287,-0.49213 0.8083,-0.73607 1.50521,-1.3216 2.9292,-2.70775 4.2717,-4.15872 0.37015,-0.39741 0.73157,-0.79931 1.09273,-1.20571 1.32159,-1.48722 2.57095,-3.03451 3.74782,-4.64212 0.16245,-0.22119 0.35666,-0.41539 0.51488,-0.64108 0.0206,-0.0394 0.0389,-0.0802 0.0542,-0.12197 15.57496,-21.82681 15.57496,-51.1347 0,-72.96203 z m -5.15223,8.54366 c 4.31853,7.11226 6.92626,15.13019 7.61762,23.42224 h -27.04809 c -0.33126,-5.38057 -1.17793,-10.71669 -2.52863,-15.93533 7.64038,-1.43086 15.03574,-3.95235 21.9591,-7.48691 z M 111.92755,44.35895 c 0.25294,0.0587 0.49662,0.13996 0.74956,0.1987 1.6166,0.37941 3.2197,0.8128 4.78657,1.35466 0.23945,0.0812 0.47413,0.17622 0.70908,0.26194 1.55337,0.54187 3.08398,1.14247 4.58338,1.80631 0.26194,0.12198 0.51937,0.25744 0.78131,0.37942 1.4359,0.68341 2.83872,1.4224 4.20846,2.2172 l 0.90303,0.54637 c 1.30042,0.79481 2.56487,1.64518 3.79306,2.55138 0.31618,0.23018 0.63209,0.45164 0.94377,0.70432 1.20412,0.90302 2.35718,1.87086 3.4589,2.90353 0.28893,0.26194 0.58711,0.51938 0.87154,0.79031 1.15596,1.09723 2.25769,2.25769 3.32343,3.4589 0.13547,0.15796 0.27993,0.30242 0.4154,0.45165 -6.11426,2.91385 -12.59153,4.99454 -19.25876,6.18622 -3.08875,-8.49101 -7.16889,-16.58779 -12.15574,-24.12206 0.62706,0.11271 1.26841,0.17594 1.88701,0.31115 z M 82.540274,92.78378 c 0.35613,-4.88579 1.18798,-9.72529 2.48364,-14.44969 5.11625,0.60775 10.26398,0.90911 15.416216,0.90303 5.15699,-0.002 10.30949,-0.31063 15.4297,-0.92578 1.29328,4.73207 2.12063,9.57924 2.46988,14.47244 z m 35.799436,9.03129 c -0.35613,4.8858 -1.18798,9.72529 -2.48364,14.44969 -5.11624,-0.60775 -10.26397,-0.90911 -15.4162,-0.90302 -5.156736,-0.006 -10.308966,0.29554 -15.429706,0.90302 -1.29197,-4.72466 -2.11905,-9.56416 -2.47015,-14.44969 z M 100.43987,46.05704 c 5.13873,7.28319 9.36519,15.16909 12.5849,23.48098 -4.18015,0.44397 -8.38094,0.66701 -12.5849,0.66834 -4.199206,-0.005 -8.395496,-0.2294 -12.571416,-0.67284 3.22368,-8.30633 7.44511,-16.18959 12.571416,-23.47648 z M 59.845114,61.52723 c 1.06124,-1.20121 2.16746,-2.36167 3.32343,-3.4589 0.28442,-0.27093 0.58261,-0.52837 0.87153,-0.79031 1.1139,-1.01441 2.26695,-1.98226 3.4589,-2.90354 0.31168,-0.23944 0.62759,-0.45164 0.94377,-0.70432 1.2282,-0.90302 2.49264,-1.75366 3.79307,-2.55137 l 0.90302,-0.54637 c 1.36975,-0.80063 2.77257,-1.53987 4.20846,-2.21721 0.26194,-0.12197 0.51938,-0.25744 0.78132,-0.37941 1.49913,-0.67733 3.03001,-1.27794 4.58337,-1.80631 0.23469,-0.0857 0.45165,-0.18071 0.70882,-0.26194 1.56687,-0.52387 3.16098,-0.95726 4.78658,-1.35466 0.25294,-0.0587 0.49662,-0.13997 0.75406,-0.19421 0.6186,-0.13547 1.25995,-0.1987 1.88754,-0.31168 -4.98898,7.5356 -9.07045,15.63397 -12.16051,24.12656 -6.66724,-1.19168 -13.14477,-3.27236 -19.25876,-6.18622 0.13547,-0.15769 0.27993,-0.30215 0.4154,-0.46011 z m -5.74384,7.83458 c 6.92176,3.5343 14.31554,6.05578 21.95459,7.48691 -1.34911,5.21891 -2.19445,10.55502 -2.52412,15.93533 h -27.04809 c 0.69162,-8.29205 3.29935,-16.30998 7.61762,-23.42224 z m 0,55.8755 c -4.31853,-7.11226 -6.92627,-15.1302 -7.61762,-23.42224 h 27.04809 c 0.33125,5.38057 1.17792,10.71668 2.52862,15.93533 -7.64037,1.4306 -15.03574,3.95208 -21.95909,7.48691 z m 34.85118,25.0026 c -0.25294,-0.0587 -0.49663,-0.13997 -0.74957,-0.19871 -1.6166,-0.37941 -3.21971,-0.8128 -4.78657,-1.35466 -0.23945,-0.0812 -0.47414,-0.17622 -0.70909,-0.26194 -1.55337,-0.54187 -3.08398,-1.14247 -4.58338,-1.80631 -0.26193,-0.12197 -0.51937,-0.25744 -0.78131,-0.37941 -1.43589,-0.68342 -2.83871,-1.4224 -4.20846,-2.21721 l -0.90303,-0.54637 c -1.30042,-0.7948 -2.56487,-1.64518 -3.79306,-2.55137 -0.31618,-0.23019 -0.63209,-0.45165 -0.94377,-0.70432 -1.20412,-0.90303 -2.35717,-1.87087 -3.4589,-2.90354 -0.28892,-0.26194 -0.58711,-0.51938 -0.87154,-0.79031 -1.15596,-1.09723 -2.25769,-2.25769 -3.32343,-3.4589 -0.13546,-0.15796 -0.27993,-0.30242 -0.41539,-0.45164 6.11425,-2.91386 12.59152,-4.99454 19.25875,-6.18623 3.08875,8.49101 7.16889,16.58779 12.15576,24.12207 -0.62733,-0.11245 -1.26842,-0.17569 -1.88701,-0.31115 z m 11.487416,-1.69784 c -5.138746,-7.28318 -9.365196,-15.16909 -12.584906,-23.48097 8.36268,-0.90011 16.797866,-0.90011 25.160546,0 l -0.005,0.005 c -3.22315,8.30606 -7.44458,16.18932 -12.57114,23.47647 z m 40.59501,-15.47045 c -1.06125,1.20121 -2.16747,2.36167 -3.32343,3.4589 -0.28443,0.27093 -0.58262,0.52837 -0.87154,0.79031 -1.1139,1.01759 -2.26695,1.98543 -3.4589,2.90354 -0.31168,0.23918 -0.62759,0.47413 -0.94377,0.70432 -1.22819,0.90302 -2.49264,1.75366 -3.79306,2.55138 l -0.90303,0.54636 c -1.36684,0.79772 -2.76966,1.5367 -4.20846,2.21721 -0.26194,0.12197 -0.51938,0.25744 -0.78131,0.37941 -1.49913,0.67733 -3.03001,1.27794 -4.58338,1.80631 -0.23469,0.0857 -0.45165,0.18071 -0.70882,0.26194 -1.56686,0.52387 -3.16097,0.95726 -4.78657,1.35467 -0.25294,0.0587 -0.49662,0.13996 -0.75406,0.1942 -0.6186,0.13547 -1.25995,0.1987 -1.88754,0.31168 4.98686,-7.53428 9.06726,-15.63105 12.15574,-24.12206 6.66724,1.19168 13.14477,3.27236 19.25876,6.18622 -0.1307,0.15319 -0.27517,0.29766 -0.41063,0.45561 z m 5.74384,-7.83431 c -6.92177,-3.5343 -14.31555,-6.05578 -21.9546,-7.48691 1.34911,-5.21891 2.19446,-10.55503 2.52413,-15.93533 h 27.04809 c -0.69163,8.29178 -3.29936,16.30971 -7.61762,23.42224 z"
       id="path891"
       style="fill:#dbdee3;stroke-width:0.26458332" />
  </g>
</svg>
